<?xml version="1.0" encoding="UTF-8"?>
<svg id="Layer_1" xmlns="http://www.w3.org/2000/svg" xmlns:xlink="http://www.w3.org/1999/xlink" version="1.1" viewBox="0 0 500 200">
  <!-- Generator: Adobe Illustrator 29.7.1, SVG Export Plug-In . SVG Version: 2.1.1 Build 8)  -->
  <defs>
    <style>
      .st0, .st1 {
        fill: none;
      }

      .st1 {
        stroke: #000;
        stroke-miterlimit: 3.98;
        stroke-width: 5.08px;
      }

      .st2 {
        clip-path: url(#clippath);
      }
    </style>
    <clipPath id="clippath">
      <polygon class="st0" points="85.51 81.59 227.05 81.59 189.05 168.48 47.51 168.48 85.51 81.59"/>
    </clipPath>
  </defs>
  <g class="st2">
    <g>
      <path class="st1" d="M191.29,81.59h35.76l-38,86.89H47.51l38-86.89h10.45"/>
      <path class="st1" d="M191.29,81.59"/>
      <path class="st1" d="M103.48,81.59"/>
    </g>
  </g>
  <path d="M142.37,24.83c-25.45,0-38.89,13.45-38.89,38.92,0,37.79,37.94,69.35,38.32,69.66h1.19c.33-.35,38.27-31.91,38.27-69.66,0-25.47-13.44-38.92-38.88-38.92h0ZM142.37,103.33l-14.68-13.35-6.2-24.8,6.08-16.25,14.8-5.38,14.8,5.4,6.08,16.23-6.2,24.8s-14.68,13.35-14.68,13.35ZM126.08,90.93l3.68,18.46-14.64-11.44v-16.77l10.96,9.74h0ZM120.55,62.56l-5.04-13.43h10.09l-5.05,13.43ZM120.32,67.81l5.01,20.06-10.02-8.9,5.01-11.16ZM131.74,110.1l-3.43-17.16,12.59,11.46-9.16,5.7ZM153.13,38.19l3.19,8.51-11.69-4.23,8.5-4.27h0ZM142.37,41.59l-9.76-4.86,9.76-9.76,9.76,9.76-9.76,4.86ZM131.61,38.22l8.51,4.24-11.71,4.27,3.19-8.51h.01ZM164.43,67.84l5.01,11.14-10.02,8.9,5.02-20.03h0ZM164.19,62.56l-5.05-13.43h10.09l-5.04,13.43ZM156.45,92.94l-3.37,17.16-9.23-5.7,12.6-11.46h0ZM158.67,90.93l10.96-9.74v16.77l-14.64,11.44,3.69-18.46h-.01ZM165.16,65.09l5.58-14.92,8.58,13.57-8.66,13.58-5.5-12.23ZM158.48,47.34l-3.71-9.87,10.77-4.46,3.83,14.33s-10.89,0-10.89,0ZM153.84,35.92l-9.29-9.28c7.85.26,14.46,1.95,19.66,5.01l-10.38,4.27h0ZM130.91,35.92l-10.38-4.27c5.21-3.06,11.81-4.75,19.66-5.01l-9.28,9.28ZM129.97,37.47l-3.71,9.87h-10.92l3.87-14.33,10.76,4.46ZM114.01,50.22l5.58,14.87-5.5,12.23-8.65-13.58,8.58-13.53h-.01ZM112.83,78.75l-5.19,1.56c-1.24-4.35-2.02-8.81-2.3-13.33,0,0,7.49,11.77,7.49,11.77ZM113.34,80.39v14.26c-2.08-4.09-3.82-8.34-5.19-12.72l5.19-1.54ZM129.64,111.55l-3.56,2.71c-3.14-3.89-6.03-7.99-8.67-12.24l12.23,9.53ZM142.37,105.59l10.08,6.3-10.08,18.91-10.08-18.91,10.08-6.3ZM167.33,102.02c-2.62,4.25-5.49,8.35-8.62,12.24l-3.57-2.71,12.19-9.53ZM171.41,80.39l5.19,1.56c-1.38,4.37-3.1,8.62-5.19,12.71v-14.26h0ZM171.91,78.67l7.49-11.77c-.29,4.52-1.06,8.98-2.3,13.33l-5.19-1.56ZM179.4,60.5l-8.05-12.63-3.72-13.94c7.19,5.67,11.18,14.61,11.77,26.59h0v-.02ZM117.11,33.93l-3.71,13.94-8.05,12.65c.59-11.98,4.57-20.92,11.76-26.59ZM127.16,115.65l3.66-2.74,8.32,15.71c-4.27-4.06-8.26-8.39-11.98-12.97h0ZM145.55,128.62l8.31-15.71,3.66,2.74c-3.71,4.58-7.71,8.91-11.97,12.97Z"/>
  <path d="M244.35,164.22v-1.44c1.68-.51,2.84-1.61,3.46-3.3.62-1.68.93-4.77.93-9.24v-44.68c0-4.19-.26-7.43-.77-9.74-.52-2.32-1.27-3.99-2.26-5.01-.98-1.03-2.2-1.76-3.67-2.21v-1.44h13.31l28.73,47.44,28.17-47.44h12.46v1.44c-1.48.45-2.71,1.18-3.7,2.21-1,1.01-1.75,2.68-2.26,5.01-.52,2.31-.77,5.56-.77,9.74v44.68c0,4.47.31,7.55.93,9.24.64,1.69,1.8,2.79,3.49,3.3v1.44h-17.84v-1.44c1.68-.51,2.84-1.61,3.46-3.3.62-1.68.93-4.77.93-9.24v-54.15l-27.96,47.23h-2.08l-28.19-46.35v48.88c0,4.17.29,7.4.88,9.69.6,2.28,1.45,3.94,2.56,5.01,1.1,1.05,2.46,1.8,4.07,2.24v1.44h-13.88Z"/>
  <path d="M362.78,165.31c-3.51,0-6.99-.55-10.41-1.65-3.41-1.1-6.51-2.78-9.29-5.06-2.79-2.27-5.01-5.17-6.66-8.68-1.65-3.53-2.48-7.68-2.48-12.46,0-5.71,1.36-10.76,4.07-15.12s6.27-7.77,10.68-10.22c4.4-2.46,9.09-3.7,14.08-3.7,3.44,0,6.85.53,10.22,1.6,3.39,1.06,6.48,2.74,9.27,5.01,2.78,2.28,5.02,5.18,6.71,8.71,1.68,3.51,2.53,7.73,2.53,12.65s-.87,8.86-2.58,12.46c-1.72,3.59-4.02,6.62-6.9,9.08-2.86,2.45-5.98,4.3-9.35,5.54-3.37,1.24-6.68,1.86-9.9,1.86v-.02ZM342.41,131.21c0,3.51.55,7.13,1.65,10.84,1.1,3.71,2.68,7.15,4.74,10.3,2.06,3.14,4.53,5.71,7.43,7.69,2.89,1.99,6.18,2.98,9.85,2.98,3.95,0,7.18-.93,9.66-2.8,2.5-1.88,4.35-4.37,5.56-7.45,1.22-3.09,1.84-6.39,1.84-9.9s-.6-7.2-1.78-11.05c-1.17-3.85-2.84-7.43-5.01-10.73-2.15-3.31-4.73-5.96-7.75-7.93-3-1.98-6.3-2.86-9.9-2.64-3.75.15-6.84,1.17-9.27,3.09-2.42,1.9-4.19,4.39-5.32,7.48-1.14,3.08-1.7,6.44-1.7,10.12h0Z"/>
  <path d="M430.58,164.22v-1.44c1.68-.51,2.17-1.41,1.46-2.69-.69-1.28-2.28-3.79-4.77-7.53l-8.81-13.31-10.01,13.74c-1.76,2.36-3,4.2-3.7,5.51-.69,1.32-.68,2.28.05,2.88.75.59,2.29,1.06,4.63,1.41v1.44h-14.19v-1.44c1.45-.51,3.02-1.37,4.71-2.58,1.7-1.2,3.87-3.61,6.5-7.22l11.13-15.18-11.24-16.96c-2.49-3.74-4.5-6.26-6.04-7.53s-3.06-2.17-4.53-2.69v-1.44h17.07v1.44c-1.69.52-2.18,1.41-1.49,2.69.71,1.28,2.3,3.79,4.79,7.53l7.48,11.45,8.25-11.66c1.77-2.5,2.97-4.41,3.59-5.72s.57-2.28-.13-2.9c-.69-.64-2.25-1.1-4.66-1.38v-1.44h14.08v1.44c-1.48.52-3.04,1.4-4.69,2.64s-3.75,3.7-6.31,7.37l-9.13,13.1,12.33,18.82c2.48,3.75,4.51,6.26,6.1,7.53,1.58,1.28,3.06,2.18,4.45,2.69v1.44h-16.93.01Z"/>
</svg>